<svg width="57" height="57" viewBox="0 0 57 57" fill="none" xmlns="http://www.w3.org/2000/svg">
<rect width="57" height="57" rx="16" fill="#00AFD5"/>
<path d="M34 37H28.8299V21.728L23.9388 33.136H20.0465L15.1701 21.774V37H10V14H16.5361L22 27.0947L27.4492 14H34V37Z" fill="white"/>
<path d="M29.8 28.4868H32.15V26.8947C32.15 25.2206 33.4573 23.75 35.2 23.75H38.8C40.5427 23.75 41.85 25.2206 41.85 26.8947V30.3816H44.2C45.9427 30.3816 47.25 31.8522 47.25 33.5263V42.0526C47.25 42.6153 47.0383 43.167 46.6426 43.5835C46.245 44.0021 45.6915 44.25 45.1 44.25H28.9C28.3085 44.25 27.755 44.0021 27.3574 43.5835C26.9617 43.167 26.75 42.6153 26.75 42.0526V31.6316C26.75 29.9575 28.0573 28.4868 29.8 28.4868ZM42.95 34.7763H41.85V39.8553H42.95V34.7763ZM37.55 32.5789V28.1447H36.45V39.8553H37.55V32.5789ZM31.05 39.8553H32.15V32.8816H31.05V39.8553Z" fill="#00AFD5" stroke="#00AFD5" stroke-width="2.5"/>
<path d="M29.8 29.7368H33.4V26.8947C33.4 25.8498 34.2073 25 35.2 25H38.8C39.7927 25 40.6 25.8498 40.6 26.8947V31.6316H44.2C45.1927 31.6316 46 32.4814 46 33.5263V42.0526C46 42.3039 45.9052 42.5449 45.7364 42.7225C45.5676 42.9002 45.3387 43 45.1 43H28.9C28.6613 43 28.4324 42.9002 28.2636 42.7225C28.0948 42.5449 28 42.3039 28 42.0526V31.6316C28 30.5866 28.8073 29.7368 29.8 29.7368ZM44.2 33.5263H40.6V41.1053H44.2V33.5263ZM38.8 32.5789V26.8947H35.2V41.1053H38.8V32.5789ZM29.8 41.1053H33.4V31.6316H29.8V41.1053Z" fill="#4D9A00" stroke="#4D9A00"/>
</svg>
