<svg width="195" height="44" viewBox="0 0 195 44" fill="none" xmlns="http://www.w3.org/2000/svg">
<path d="M175.1 28.2632H179.3V25.1053C179.3 23.9442 180.242 23 181.4 23H185.6C186.758 23 187.7 23.9442 187.7 25.1053V30.3684H191.9C193.058 30.3684 194 31.3126 194 32.4737V41.9474C194 42.2265 193.889 42.4943 193.692 42.6917C193.496 42.8891 193.228 43 192.95 43H174.05C173.772 43 173.504 42.8891 173.308 42.6917C173.111 42.4943 173 42.2265 173 41.9474V30.3684C173 29.2074 173.942 28.2632 175.1 28.2632ZM191.9 32.4737H187.7V40.8947H191.9V32.4737ZM185.6 31.4211V25.1053H181.4V40.8947H185.6V31.4211ZM175.1 40.8947H179.3V30.3684H175.1V40.8947Z" fill="#4D9A00" stroke="#4D9A00"/>
<path d="M0 42.6154V23.3846H12.7999V27.3205H4.57882V31H12.2796V34.9359H4.57882V38.6795H12.93V42.6154H0Z" fill="#00AFD5"/>
<path d="M26.0941 37.7949H15.6877V34.5897H26.0941V37.7949Z" fill="#00AFD5"/>
<path d="M46.0224 40.2179C45.1118 41.0897 44.0321 41.7735 42.7834 42.2692C41.5346 42.7564 40.1731 43 38.6988 43C37.2159 43 35.8458 42.7521 34.5883 42.2564C33.3309 41.7521 32.2382 41.0513 31.3103 40.1538C30.3824 39.2479 29.6626 38.188 29.151 36.9744C28.6393 35.7607 28.3835 34.4359 28.3835 33C28.3835 31.5641 28.6393 30.2393 29.151 29.0256C29.6626 27.812 30.3824 26.7564 31.3103 25.859C32.2382 24.953 33.3309 24.2521 34.5883 23.7564C35.8458 23.2521 37.2159 23 38.6988 23C40.1644 23 41.5172 23.2479 42.7573 23.7436C43.9974 24.2308 45.0771 24.9145 45.9963 25.7949L42.7964 28.9615C42.3021 28.3291 41.695 27.8333 40.9752 27.4744C40.2555 27.1154 39.4707 26.9359 38.6208 26.9359C37.8316 26.9359 37.0989 27.0897 36.4224 27.3974C35.746 27.7051 35.1563 28.1325 34.6534 28.6795C34.1504 29.2265 33.7601 29.8675 33.4826 30.6026C33.2051 31.3376 33.0664 32.1325 33.0664 32.9872C33.0664 33.859 33.2051 34.6624 33.4826 35.3974C33.7601 36.1239 34.1504 36.765 34.6534 37.3205C35.1563 37.8675 35.746 38.2949 36.4224 38.6026C37.0989 38.9103 37.8316 39.0641 38.6208 39.0641C39.4707 39.0641 40.2511 38.8846 40.9622 38.5256C41.682 38.1667 42.2934 37.6709 42.7964 37.0385L46.0224 40.2179Z" fill="#00AFD5"/>
<path d="M58.0808 43C56.5892 43 55.2147 42.7521 53.9572 42.2564C52.7085 41.7521 51.6201 41.0513 50.6922 40.1538C49.7643 39.2479 49.0446 38.188 48.5329 36.9744C48.0213 35.7607 47.7654 34.4359 47.7654 33C47.7654 31.5641 48.0213 30.2393 48.5329 29.0256C49.0446 27.812 49.7643 26.7564 50.6922 25.859C51.6201 24.953 52.7085 24.2521 53.9572 23.7564C55.2147 23.2521 56.5935 23 58.0938 23C59.5767 23 60.9426 23.2521 62.1913 23.7564C63.4488 24.2521 64.5371 24.953 65.4563 25.859C66.3756 26.7564 67.091 27.812 67.6027 29.0256C68.1143 30.2393 68.3701 31.5641 68.3701 33C68.3701 34.4359 68.1143 35.7607 67.6027 36.9744C67.091 38.188 66.3756 39.2479 65.4563 40.1538C64.5371 41.0513 63.4488 41.7521 62.1913 42.2564C60.9426 42.7521 59.5724 43 58.0808 43ZM58.0808 39.0641C58.8786 39.0641 59.6157 38.9103 60.2922 38.6026C60.9772 38.2949 61.5713 37.8675 62.0742 37.3205C62.5859 36.765 62.9805 36.1197 63.258 35.3846C63.5442 34.6496 63.6872 33.8547 63.6872 33C63.6872 32.1453 63.5442 31.3504 63.258 30.6154C62.9805 29.8803 62.5859 29.2393 62.0742 28.6923C61.5713 28.1368 60.9772 27.7051 60.2922 27.3974C59.6157 27.0897 58.8786 26.9359 58.0808 26.9359C57.283 26.9359 56.5372 27.0897 55.8434 27.3974C55.1583 27.7051 54.56 28.1368 54.0483 28.6923C53.5453 29.2393 53.1508 29.8803 52.8646 30.6154C52.5871 31.3504 52.4483 32.1453 52.4483 33C52.4483 33.8547 52.5871 34.6496 52.8646 35.3846C53.1508 36.1197 53.5453 36.765 54.0483 37.3205C54.56 37.8675 55.1583 38.2949 55.8434 38.6026C56.5372 38.9103 57.283 39.0641 58.0808 39.0641Z" fill="#00AFD5"/>
<path d="M91.9146 42.6154H87.3358V29.8462L83.0041 39.3846H79.557L75.2384 29.8846V42.6154H70.6595V23.3846H76.4481L81.2871 34.3333L86.1131 23.3846H91.9146V42.6154Z" fill="#00AFD5"/>
<path d="M116.058 42.6154H111.479V29.8462L107.147 39.3846H103.7L99.3812 29.8846V42.6154H94.8024V23.3846H100.591L105.43 34.3333L110.256 23.3846H116.058V42.6154Z" fill="#00AFD5"/>
<path d="M118.945 42.6154V23.3846H131.745V27.3205H123.524V31H131.225V34.9359H123.524V38.6795H131.875V42.6154H118.945Z" fill="#00AFD5"/>
<path d="M150.958 42.6154H145.898L141.982 35.9615H139.212V42.6154H134.633V23.3846H142.269C143.899 23.3846 145.291 23.6325 146.444 24.1282C147.598 24.6239 148.478 25.3419 149.085 26.2821C149.701 27.2222 150.008 28.3547 150.008 29.6795C150.008 30.9701 149.709 32.0769 149.111 33C148.521 33.9231 147.676 34.6325 146.574 35.1282L150.958 42.6154ZM139.212 32.4359H141.917C143.027 32.4359 143.873 32.2179 144.454 31.7821C145.035 31.3462 145.326 30.7137 145.326 29.8846C145.326 29.047 145.035 28.4103 144.454 27.9744C143.873 27.5385 143.027 27.3205 141.917 27.3205H139.212V32.4359Z" fill="#00AFD5"/>
<path d="M169.859 40.2179C168.948 41.0897 167.868 41.7735 166.62 42.2692C165.371 42.7564 164.009 43 162.535 43C161.052 43 159.682 42.7521 158.425 42.2564C157.167 41.7521 156.074 41.0513 155.147 40.1538C154.219 39.2479 153.499 38.188 152.987 36.9744C152.476 35.7607 152.22 34.4359 152.22 33C152.22 31.5641 152.476 30.2393 152.987 29.0256C153.499 27.812 154.219 26.7564 155.147 25.859C156.074 24.953 157.167 24.2521 158.425 23.7564C159.682 23.2521 161.052 23 162.535 23C164.001 23 165.354 23.2479 166.594 23.7436C167.834 24.2308 168.913 24.9145 169.833 25.7949L166.633 28.9615C166.138 28.3291 165.531 27.8333 164.812 27.4744C164.092 27.1154 163.307 26.9359 162.457 26.9359C161.668 26.9359 160.935 27.0897 160.259 27.3974C159.582 27.7051 158.993 28.1325 158.49 28.6795C157.987 29.2265 157.596 29.8675 157.319 30.6026C157.041 31.3376 156.903 32.1325 156.903 32.9872C156.903 33.859 157.041 34.6624 157.319 35.3974C157.596 36.1239 157.987 36.765 158.49 37.3205C158.993 37.8675 159.582 38.2949 160.259 38.6026C160.935 38.9103 161.668 39.0641 162.457 39.0641C163.307 39.0641 164.087 38.8846 164.799 38.5256C165.518 38.1667 166.13 37.6709 166.633 37.0385L169.859 40.2179Z" fill="#00AFD5"/>
<path d="M27.7719 26H21.7892V8.736L16.1295 21.632H11.6255L5.98269 8.788V26H0V0H7.56335L13.886 14.8027L20.1916 0H27.7719V26Z" fill="#00AFD5"/>
<path d="M45.4311 26H39.4484V14.8893L29.8795 0H37.1539L42.4057 9.48133L47.7256 0H55L45.4311 14.9067V26Z" fill="#00AFD5"/>
</svg>
